<mxfile host="app.diagrams.net" modified="2021-08-19T05:09:17.661Z" agent="5.0 (Windows NT 10.0; Win64; x64) AppleWebKit/537.36 (KHTML, like Gecko) Chrome/92.0.4515.107 Safari/537.36 Edg/92.0.902.62" etag="6GMycli8fl0l4qPcApMv" version="14.9.5" type="github">
  <diagram id="C5RBs43oDa-KdzZeNtuy" name="Page-1">
    <mxGraphModel dx="2369" dy="1358" grid="0" gridSize="10" guides="1" tooltips="1" connect="1" arrows="1" fold="1" page="1" pageScale="1" pageWidth="3300" pageHeight="4681" math="0" shadow="0">
      <root>
        <mxCell id="WIyWlLk6GJQsqaUBKTNV-0" />
        <mxCell id="WIyWlLk6GJQsqaUBKTNV-1" parent="WIyWlLk6GJQsqaUBKTNV-0" />
        <mxCell id="7WFJHBoiRgZRYlErVv3r-28" value="" style="edgeStyle=orthogonalEdgeStyle;rounded=0;sketch=1;orthogonalLoop=1;jettySize=auto;html=1;" edge="1" parent="WIyWlLk6GJQsqaUBKTNV-1" source="7WFJHBoiRgZRYlErVv3r-4" target="7WFJHBoiRgZRYlErVv3r-27">
          <mxGeometry relative="1" as="geometry" />
        </mxCell>
        <object label="&lt;table border=&quot;1&quot; width=&quot;100%&quot; cellpadding=&quot;4&quot; style=&quot;width: 100% ; height: 100% ; border-collapse: collapse ; font-size: 14px&quot;&gt;&lt;tbody&gt;&lt;tr style=&quot;background-color: #a7c942 ; color: #ffffff ; border: 1px solid #98bf21&quot;&gt;&lt;th align=&quot;left&quot;&gt;&lt;font style=&quot;font-size: 14px&quot;&gt;left_ins&lt;/font&gt;&lt;/th&gt;&lt;td&gt;&lt;b&gt;&lt;font style=&quot;font-size: 14px&quot;&gt;left_resource_group_path_array&lt;/font&gt;&lt;/b&gt;&lt;/td&gt;&lt;th align=&quot;left&quot;&gt;&lt;font style=&quot;font-size: 14px&quot;&gt;right_ins&lt;/font&gt;&lt;/th&gt;&lt;td&gt;&lt;b&gt;&lt;font style=&quot;font-size: 14px&quot;&gt;right_resouce_group_path_array&lt;/font&gt;&lt;/b&gt;&lt;/td&gt;&lt;th align=&quot;left&quot;&gt;&lt;font style=&quot;font-size: 14px&quot;&gt;left2right_flow&lt;/font&gt;&lt;/th&gt;&lt;td&gt;&lt;b&gt;&lt;font style=&quot;font-size: 14px&quot;&gt;right2left_flow&lt;/font&gt;&lt;/b&gt;&lt;/td&gt;&lt;td&gt;&lt;b&gt;&lt;font style=&quot;font-size: 14px&quot;&gt;session_cnt&lt;/font&gt;&lt;/b&gt;&lt;/td&gt;&lt;td&gt;&lt;b&gt;&lt;font style=&quot;font-size: 14px&quot;&gt;insert_hour&lt;/font&gt;&lt;/b&gt;&lt;/td&gt;&lt;/tr&gt;&lt;tr style=&quot;border: 1px solid #98bf21&quot;&gt;&lt;td&gt;&lt;font style=&quot;font-size: 14px&quot;&gt;ins-1&lt;/font&gt;&lt;/td&gt;&lt;td&gt;&lt;font style=&quot;font-size: 14px&quot;&gt;[&#39;全部资产&#39;,&#39;全部资产/A&#39;,&#39;全部资产/A/ins-1&#39;]&lt;/font&gt;&lt;/td&gt;&lt;td&gt;&lt;font style=&quot;font-size: 14px&quot;&gt;ins-2&lt;/font&gt;&lt;/td&gt;&lt;td&gt;&lt;font style=&quot;font-size: 14px&quot;&gt;[&#39;全部资产&#39;,&#39;全部资产/A&#39;,&#39;全部资产/A/ins-2&#39;]&lt;br&gt;&lt;/font&gt;&lt;/td&gt;&lt;td&gt;&lt;font style=&quot;font-size: 14px&quot;&gt;1024&lt;/font&gt;&lt;/td&gt;&lt;td&gt;&lt;font style=&quot;font-size: 14px&quot;&gt;2048&lt;/font&gt;&lt;/td&gt;&lt;td&gt;&lt;font style=&quot;font-size: 14px&quot;&gt;1&lt;/font&gt;&lt;/td&gt;&lt;td&gt;&lt;font style=&quot;font-size: 14px&quot;&gt;&lt;br&gt;&lt;/font&gt;&lt;/td&gt;&lt;/tr&gt;&lt;tr style=&quot;background-color: #eaf2d3 ; border: 1px solid #98bf21&quot;&gt;&lt;td&gt;&lt;font style=&quot;font-size: 14px&quot;&gt;ins-1&lt;/font&gt;&lt;/td&gt;&lt;td&gt;&lt;font style=&quot;font-size: 14px&quot;&gt;&lt;span style=&quot;background-color: rgb(248 , 249 , 250)&quot;&gt;[&#39;全部资产&#39;,&#39;全部资产/A&#39;,&#39;全部资产/A/ins-1&#39;]&lt;/span&gt;&lt;br&gt;&lt;/font&gt;&lt;/td&gt;&lt;td&gt;&lt;font style=&quot;font-size: 14px&quot;&gt;ins-2&lt;/font&gt;&lt;/td&gt;&lt;td&gt;&lt;font style=&quot;font-size: 14px&quot;&gt;&lt;span style=&quot;background-color: rgb(248 , 249 , 250)&quot;&gt;[&#39;全部资产&#39;,&#39;全部资产/A&#39;,&#39;全部资产/A/ins-2&#39;]&lt;/span&gt;&lt;br&gt;&lt;/font&gt;&lt;/td&gt;&lt;td&gt;&lt;font style=&quot;font-size: 14px&quot;&gt;1024&lt;/font&gt;&lt;/td&gt;&lt;td&gt;&lt;font style=&quot;font-size: 14px&quot;&gt;2048&lt;/font&gt;&lt;/td&gt;&lt;td&gt;&lt;font style=&quot;font-size: 14px&quot;&gt;1&lt;/font&gt;&lt;/td&gt;&lt;td&gt;&lt;font style=&quot;font-size: 14px&quot;&gt;&lt;br&gt;&lt;/font&gt;&lt;/td&gt;&lt;/tr&gt;&lt;/tbody&gt;&lt;/table&gt;" id="7WFJHBoiRgZRYlErVv3r-4">
          <mxCell style="text;html=1;strokeColor=#c0c0c0;fillColor=#ffffff;overflow=fill;sketch=1;" vertex="1" parent="WIyWlLk6GJQsqaUBKTNV-1">
            <mxGeometry x="902" y="2268" width="1066" height="160" as="geometry" />
          </mxCell>
        </object>
        <mxCell id="7WFJHBoiRgZRYlErVv3r-26" value="&lt;p style=&quot;line-height: 90%&quot;&gt;&lt;font style=&quot;font-size: 20px ; line-height: 54%&quot;&gt;流日志元数据表&lt;/font&gt;&lt;/p&gt;" style="text;html=1;align=center;verticalAlign=middle;resizable=0;points=[];autosize=1;strokeColor=none;" vertex="1" parent="WIyWlLk6GJQsqaUBKTNV-1">
          <mxGeometry x="902" y="2222" width="150" height="41" as="geometry" />
        </mxCell>
        <mxCell id="7WFJHBoiRgZRYlErVv3r-35" value="" style="edgeStyle=orthogonalEdgeStyle;rounded=0;sketch=1;orthogonalLoop=1;jettySize=auto;html=1;" edge="1" parent="WIyWlLk6GJQsqaUBKTNV-1" source="7WFJHBoiRgZRYlErVv3r-27" target="7WFJHBoiRgZRYlErVv3r-34">
          <mxGeometry relative="1" as="geometry" />
        </mxCell>
        <object label="&lt;table border=&quot;1&quot; width=&quot;100%&quot; cellpadding=&quot;4&quot; style=&quot;width: 100% ; height: 100% ; border-collapse: collapse ; font-size: 14px&quot;&gt;&lt;tbody&gt;&lt;tr style=&quot;background-color: #a7c942 ; color: #ffffff ; border: 1px solid #98bf21&quot;&gt;&lt;th align=&quot;left&quot;&gt;&lt;span style=&quot;background-color: rgb(255 , 153 , 255)&quot;&gt;&lt;font style=&quot;font-size: 14px&quot;&gt;left_ins&lt;/font&gt;&lt;/span&gt;&lt;/th&gt;&lt;td&gt;&lt;span style=&quot;background-color: rgb(255 , 153 , 255)&quot;&gt;&lt;font style=&quot;font-size: 14px&quot;&gt;&lt;b&gt;left_resource_group_path_array&lt;/b&gt;&lt;br&gt;&lt;/font&gt;&lt;/span&gt;&lt;/td&gt;&lt;th align=&quot;left&quot;&gt;&lt;span style=&quot;background-color: rgb(255 , 153 , 255)&quot;&gt;&lt;font style=&quot;font-size: 14px&quot;&gt;right_ins&lt;/font&gt;&lt;/span&gt;&lt;/th&gt;&lt;td&gt;&lt;font style=&quot;font-size: 14px&quot;&gt;&lt;b style=&quot;background-color: rgb(255 , 153 , 255)&quot;&gt;right_resouce_group_path_array&lt;/b&gt;&lt;br&gt;&lt;/font&gt;&lt;/td&gt;&lt;th align=&quot;left&quot;&gt;&lt;font style=&quot;font-size: 14px&quot;&gt;left2right_flow&lt;/font&gt;&lt;/th&gt;&lt;td&gt;&lt;b&gt;&lt;font style=&quot;font-size: 14px&quot;&gt;right2left_flow&lt;/font&gt;&lt;/b&gt;&lt;/td&gt;&lt;td&gt;&lt;b&gt;&lt;font style=&quot;font-size: 14px&quot;&gt;session_cnt&lt;/font&gt;&lt;/b&gt;&lt;/td&gt;&lt;td&gt;&lt;font style=&quot;font-size: 14px&quot;&gt;insert_hour&lt;/font&gt;&lt;/td&gt;&lt;/tr&gt;&lt;tr style=&quot;border: 1px solid #98bf21&quot;&gt;&lt;td&gt;&lt;font style=&quot;font-size: 14px&quot;&gt;ins-1&lt;/font&gt;&lt;/td&gt;&lt;td&gt;&lt;font style=&quot;font-size: 14px&quot;&gt;[&#39;全部资产&#39;,&#39;全部资产/A&#39;,&#39;全部资产/A/ins-1&#39;]&lt;br&gt;&lt;/font&gt;&lt;/td&gt;&lt;td&gt;&lt;font style=&quot;font-size: 14px&quot;&gt;ins-2&lt;/font&gt;&lt;/td&gt;&lt;td&gt;&lt;font style=&quot;font-size: 14px&quot;&gt;[&#39;全部资产&#39;,&#39;全部资产/A&#39;,&#39;全部资产/A/ins-2&#39;]&lt;br&gt;&lt;/font&gt;&lt;/td&gt;&lt;td&gt;&lt;font style=&quot;font-size: 14px&quot;&gt;2048&lt;/font&gt;&lt;/td&gt;&lt;td&gt;&lt;font style=&quot;font-size: 14px&quot;&gt;4096&lt;/font&gt;&lt;/td&gt;&lt;td&gt;&lt;font style=&quot;font-size: 14px&quot;&gt;2&lt;/font&gt;&lt;/td&gt;&lt;td&gt;&lt;font style=&quot;font-size: 14px&quot;&gt;&lt;br&gt;&lt;/font&gt;&lt;/td&gt;&lt;/tr&gt;&lt;tr style=&quot;background-color: #eaf2d3 ; border: 1px solid #98bf21&quot;&gt;&lt;td&gt;&lt;font style=&quot;font-size: 14px&quot;&gt;ins-1&lt;/font&gt;&lt;/td&gt;&lt;td&gt;&lt;font style=&quot;font-size: 14px&quot;&gt;&lt;span style=&quot;background-color: rgb(248 , 249 , 250)&quot;&gt;[&#39;全部资产&#39;,&#39;全部资产/A&#39;,&#39;全部资产/A/ins-1&#39;]&lt;/span&gt;&lt;br&gt;&lt;/font&gt;&lt;/td&gt;&lt;td&gt;&lt;font style=&quot;font-size: 14px&quot;&gt;ins-3&lt;/font&gt;&lt;/td&gt;&lt;td&gt;&lt;font style=&quot;font-size: 14px&quot;&gt;&lt;span style=&quot;background-color: rgb(248 , 249 , 250)&quot;&gt;[&#39;全部资产&#39;,&#39;全部资产/A&#39;,&#39;全部资产/A/ins-3&#39;]&lt;/span&gt;&lt;br&gt;&lt;/font&gt;&lt;/td&gt;&lt;td&gt;&lt;font style=&quot;font-size: 14px&quot;&gt;1&lt;/font&gt;&lt;/td&gt;&lt;td&gt;&lt;font style=&quot;font-size: 14px&quot;&gt;1&lt;/font&gt;&lt;/td&gt;&lt;td&gt;&lt;font style=&quot;font-size: 14px&quot;&gt;1&lt;/font&gt;&lt;/td&gt;&lt;td&gt;&lt;font style=&quot;font-size: 14px&quot;&gt;&lt;br&gt;&lt;/font&gt;&lt;/td&gt;&lt;/tr&gt;&lt;/tbody&gt;&lt;/table&gt;" id="7WFJHBoiRgZRYlErVv3r-27">
          <mxCell style="text;html=1;strokeColor=#c0c0c0;fillColor=#ffffff;overflow=fill;sketch=1;" vertex="1" parent="WIyWlLk6GJQsqaUBKTNV-1">
            <mxGeometry x="902" y="2609" width="1064" height="160" as="geometry" />
          </mxCell>
        </object>
        <mxCell id="7WFJHBoiRgZRYlErVv3r-29" value="&lt;span style=&quot;font-size: 20px ; line-height: 30%&quot;&gt;实例访问路径视图&lt;/span&gt;" style="text;html=1;align=center;verticalAlign=middle;resizable=0;points=[];autosize=1;strokeColor=none;" vertex="1" parent="WIyWlLk6GJQsqaUBKTNV-1">
          <mxGeometry x="902" y="2578" width="170" height="18" as="geometry" />
        </mxCell>
        <mxCell id="7WFJHBoiRgZRYlErVv3r-31" value="&lt;span style=&quot;font-size: 20px ; line-height: 30%&quot;&gt;一级物化视图&lt;/span&gt;" style="text;html=1;align=center;verticalAlign=middle;resizable=0;points=[];autosize=1;strokeColor=none;" vertex="1" parent="WIyWlLk6GJQsqaUBKTNV-1">
          <mxGeometry x="902" y="2547" width="130" height="18" as="geometry" />
        </mxCell>
        <mxCell id="7WFJHBoiRgZRYlErVv3r-39" value="" style="edgeStyle=orthogonalEdgeStyle;rounded=0;sketch=1;orthogonalLoop=1;jettySize=auto;html=1;exitX=0.5;exitY=1;exitDx=0;exitDy=0;" edge="1" parent="WIyWlLk6GJQsqaUBKTNV-1" source="7WFJHBoiRgZRYlErVv3r-34" target="7WFJHBoiRgZRYlErVv3r-38">
          <mxGeometry relative="1" as="geometry">
            <mxPoint x="1427" y="3154" as="sourcePoint" />
          </mxGeometry>
        </mxCell>
        <object label="&lt;table border=&quot;1&quot; width=&quot;100%&quot; cellpadding=&quot;4&quot; style=&quot;width: 100% ; height: 100% ; border-collapse: collapse ; font-size: 14px&quot;&gt;&lt;tbody&gt;&lt;tr style=&quot;background-color: #a7c942 ; color: #ffffff ; border: 1px solid #98bf21&quot;&gt;&lt;td&gt;&lt;span style=&quot;background-color: rgb(255 , 153 , 255)&quot;&gt;&lt;font style=&quot;font-size: 14px&quot;&gt;&lt;b&gt;left_resource_group_path&lt;/b&gt;&lt;br&gt;&lt;/font&gt;&lt;/span&gt;&lt;/td&gt;&lt;td&gt;&lt;font style=&quot;font-size: 14px&quot;&gt;&lt;b style=&quot;background-color: rgb(255 , 153 , 255)&quot;&gt;right_resouce_group_path&lt;/b&gt;&lt;br&gt;&lt;/font&gt;&lt;/td&gt;&lt;th align=&quot;left&quot;&gt;&lt;font style=&quot;font-size: 14px&quot;&gt;left2right_flow&lt;/font&gt;&lt;/th&gt;&lt;td&gt;&lt;b&gt;&lt;font style=&quot;font-size: 14px&quot;&gt;right2left_flow&lt;/font&gt;&lt;/b&gt;&lt;/td&gt;&lt;td&gt;&lt;b&gt;&lt;font style=&quot;font-size: 14px&quot;&gt;session_cnt&lt;/font&gt;&lt;/b&gt;&lt;/td&gt;&lt;td&gt;&lt;font style=&quot;font-size: 14px&quot;&gt;insert_hour&lt;/font&gt;&lt;/td&gt;&lt;/tr&gt;&lt;tr style=&quot;border: 1px solid #98bf21&quot;&gt;&lt;td&gt;&lt;font style=&quot;font-size: 14px&quot;&gt;全部资产/A/ins-1&lt;br&gt;&lt;/font&gt;&lt;/td&gt;&lt;td&gt;&lt;font style=&quot;font-size: 14px&quot;&gt;全部资产/A/ins-2&lt;br&gt;&lt;/font&gt;&lt;/td&gt;&lt;td&gt;&lt;font style=&quot;font-size: 14px&quot;&gt;2048&lt;/font&gt;&lt;/td&gt;&lt;td&gt;&lt;font style=&quot;font-size: 14px&quot;&gt;4096&lt;/font&gt;&lt;/td&gt;&lt;td&gt;&lt;font style=&quot;font-size: 14px&quot;&gt;2&lt;/font&gt;&lt;/td&gt;&lt;td&gt;&lt;font style=&quot;font-size: 14px&quot;&gt;&lt;br&gt;&lt;/font&gt;&lt;/td&gt;&lt;/tr&gt;&lt;tr style=&quot;background-color: #eaf2d3 ; border: 1px solid #98bf21&quot;&gt;&lt;td&gt;&lt;font style=&quot;font-size: 14px&quot;&gt;&lt;span style=&quot;background-color: rgb(248 , 249 , 250)&quot;&gt;全部资产/A&lt;/span&gt;&lt;br&gt;&lt;/font&gt;&lt;/td&gt;&lt;td&gt;&lt;font style=&quot;font-size: 14px&quot;&gt;&lt;span style=&quot;background-color: rgb(248 , 249 , 250)&quot;&gt;全部资产/A/ins-3&lt;/span&gt;&lt;br&gt;&lt;/font&gt;&lt;/td&gt;&lt;td&gt;&lt;font style=&quot;font-size: 14px&quot;&gt;1&lt;/font&gt;&lt;/td&gt;&lt;td&gt;&lt;font style=&quot;font-size: 14px&quot;&gt;1&lt;/font&gt;&lt;/td&gt;&lt;td&gt;&lt;font style=&quot;font-size: 14px&quot;&gt;1&lt;/font&gt;&lt;/td&gt;&lt;td&gt;&lt;font style=&quot;font-size: 14px&quot;&gt;&lt;br&gt;&lt;/font&gt;&lt;/td&gt;&lt;/tr&gt;&lt;/tbody&gt;&lt;/table&gt;" id="7WFJHBoiRgZRYlErVv3r-34">
          <mxCell style="text;html=1;strokeColor=#c0c0c0;fillColor=#ffffff;overflow=fill;sketch=1;" vertex="1" parent="WIyWlLk6GJQsqaUBKTNV-1">
            <mxGeometry x="902" y="2959" width="1064" height="160" as="geometry" />
          </mxCell>
        </object>
        <mxCell id="7WFJHBoiRgZRYlErVv3r-36" value="&lt;span style=&quot;font-size: 20px ; line-height: 30%&quot;&gt;资产分组访问路径视图&lt;/span&gt;" style="text;html=1;align=center;verticalAlign=middle;resizable=0;points=[];autosize=1;strokeColor=none;" vertex="1" parent="WIyWlLk6GJQsqaUBKTNV-1">
          <mxGeometry x="902" y="2933" width="210" height="18" as="geometry" />
        </mxCell>
        <mxCell id="7WFJHBoiRgZRYlErVv3r-37" value="&lt;span style=&quot;font-size: 20px ; line-height: 30%&quot;&gt;二级物化视图&lt;/span&gt;" style="text;html=1;align=center;verticalAlign=middle;resizable=0;points=[];autosize=1;strokeColor=none;" vertex="1" parent="WIyWlLk6GJQsqaUBKTNV-1">
          <mxGeometry x="902" y="2900" width="130" height="18" as="geometry" />
        </mxCell>
        <object label="&lt;table border=&quot;1&quot; width=&quot;100%&quot; cellpadding=&quot;4&quot; style=&quot;width: 100% ; height: 100% ; border-collapse: collapse ; font-size: 14px&quot;&gt;&lt;tbody&gt;&lt;tr style=&quot;background-color: #a7c942 ; color: #ffffff ; border: 1px solid #98bf21&quot;&gt;&lt;td&gt;&lt;b style=&quot;background-color: rgb(255 , 153 , 255)&quot;&gt;&lt;font style=&quot;font-size: 14px&quot;&gt;resouce_group_path&lt;/font&gt;&lt;/b&gt;&lt;/td&gt;&lt;th align=&quot;left&quot;&gt;&lt;font style=&quot;font-size: 14px&quot;&gt;in_flow&lt;/font&gt;&lt;/th&gt;&lt;td&gt;&lt;b&gt;&lt;font style=&quot;font-size: 14px&quot;&gt;out_flow&lt;/font&gt;&lt;/b&gt;&lt;/td&gt;&lt;td&gt;&lt;b&gt;&lt;font style=&quot;font-size: 14px&quot;&gt;session_cnt&lt;/font&gt;&lt;/b&gt;&lt;/td&gt;&lt;td&gt;&lt;font style=&quot;font-size: 14px&quot;&gt;insert_hour&lt;/font&gt;&lt;/td&gt;&lt;/tr&gt;&lt;tr style=&quot;border: 1px solid #98bf21&quot;&gt;&lt;td&gt;&lt;font style=&quot;font-size: 14px&quot;&gt;全部资产/A/ins-2&lt;br&gt;&lt;/font&gt;&lt;/td&gt;&lt;td&gt;&lt;font style=&quot;font-size: 14px&quot;&gt;2048&lt;/font&gt;&lt;/td&gt;&lt;td&gt;&lt;font style=&quot;font-size: 14px&quot;&gt;4096&lt;/font&gt;&lt;/td&gt;&lt;td&gt;&lt;font style=&quot;font-size: 14px&quot;&gt;2&lt;/font&gt;&lt;/td&gt;&lt;td&gt;&lt;font style=&quot;font-size: 14px&quot;&gt;&lt;br&gt;&lt;/font&gt;&lt;/td&gt;&lt;/tr&gt;&lt;tr style=&quot;background-color: #eaf2d3 ; border: 1px solid #98bf21&quot;&gt;&lt;td&gt;&lt;font style=&quot;font-size: 14px&quot;&gt;&lt;span style=&quot;background-color: rgb(248 , 249 , 250)&quot;&gt;全部资产/A/ins-3&lt;/span&gt;&lt;br&gt;&lt;/font&gt;&lt;/td&gt;&lt;td&gt;&lt;font style=&quot;font-size: 14px&quot;&gt;1&lt;/font&gt;&lt;/td&gt;&lt;td&gt;&lt;font style=&quot;font-size: 14px&quot;&gt;1&lt;/font&gt;&lt;/td&gt;&lt;td&gt;&lt;font style=&quot;font-size: 14px&quot;&gt;1&lt;/font&gt;&lt;/td&gt;&lt;td&gt;&lt;font style=&quot;font-size: 14px&quot;&gt;&lt;br&gt;&lt;/font&gt;&lt;/td&gt;&lt;/tr&gt;&lt;/tbody&gt;&lt;/table&gt;" id="7WFJHBoiRgZRYlErVv3r-38">
          <mxCell style="text;html=1;strokeColor=#c0c0c0;fillColor=#ffffff;overflow=fill;sketch=1;" vertex="1" parent="WIyWlLk6GJQsqaUBKTNV-1">
            <mxGeometry x="902" y="3306.5" width="1064" height="160" as="geometry" />
          </mxCell>
        </object>
        <mxCell id="7WFJHBoiRgZRYlErVv3r-40" value="&lt;span style=&quot;font-size: 20px ; line-height: 30%&quot;&gt;资产树节点流量统计&lt;/span&gt;" style="text;html=1;align=center;verticalAlign=middle;resizable=0;points=[];autosize=1;strokeColor=none;" vertex="1" parent="WIyWlLk6GJQsqaUBKTNV-1">
          <mxGeometry x="902" y="3279.5" width="190" height="18" as="geometry" />
        </mxCell>
        <mxCell id="7WFJHBoiRgZRYlErVv3r-41" value="&lt;span style=&quot;font-size: 20px ; line-height: 30%&quot;&gt;三级物化视图&lt;/span&gt;" style="text;html=1;align=center;verticalAlign=middle;resizable=0;points=[];autosize=1;strokeColor=none;" vertex="1" parent="WIyWlLk6GJQsqaUBKTNV-1">
          <mxGeometry x="902" y="3244.5" width="130" height="18" as="geometry" />
        </mxCell>
        <mxCell id="7WFJHBoiRgZRYlErVv3r-43" value="&lt;p style=&quot;line-height: 90%&quot;&gt;&lt;font style=&quot;font-size: 20px ; line-height: 54%&quot;&gt;流日志前置富华&lt;/font&gt;&lt;/p&gt;" style="text;html=1;align=center;verticalAlign=middle;resizable=0;points=[];autosize=1;strokeColor=none;" vertex="1" parent="WIyWlLk6GJQsqaUBKTNV-1">
          <mxGeometry x="905" y="1859" width="150" height="41" as="geometry" />
        </mxCell>
        <object label="&lt;table border=&quot;1&quot; width=&quot;100%&quot; cellpadding=&quot;4&quot; style=&quot;width: 100% ; height: 100% ; border-collapse: collapse ; font-size: 14px&quot;&gt;&lt;tbody&gt;&lt;tr style=&quot;background-color: #a7c942 ; color: #ffffff ; border: 1px solid #98bf21&quot;&gt;&lt;th align=&quot;left&quot;&gt;&lt;font style=&quot;font-size: 14px&quot;&gt;访问源&lt;/font&gt;&lt;/th&gt;&lt;td&gt;&lt;b&gt;&lt;font style=&quot;font-size: 14px&quot;&gt;访问目的&lt;/font&gt;&lt;/b&gt;&lt;/td&gt;&lt;th align=&quot;left&quot;&gt;&lt;font style=&quot;font-size: 14px&quot;&gt;接收字节数&lt;/font&gt;&lt;/th&gt;&lt;td&gt;&lt;b&gt;&lt;font style=&quot;font-size: 14px&quot;&gt;发送字节数&lt;/font&gt;&lt;/b&gt;&lt;/td&gt;&lt;/tr&gt;&lt;tr style=&quot;border: 1px solid #98bf21&quot;&gt;&lt;td&gt;&lt;font style=&quot;font-size: 14px&quot;&gt;ins-1&lt;/font&gt;&lt;/td&gt;&lt;td&gt;&lt;font style=&quot;font-size: 14px&quot;&gt;ins-2&lt;/font&gt;&lt;/td&gt;&lt;td&gt;&lt;font style=&quot;font-size: 14px&quot;&gt;1024&lt;/font&gt;&lt;/td&gt;&lt;td&gt;&lt;font style=&quot;font-size: 14px&quot;&gt;2048&lt;/font&gt;&lt;/td&gt;&lt;/tr&gt;&lt;tr style=&quot;background-color: #eaf2d3 ; border: 1px solid #98bf21&quot;&gt;&lt;td&gt;&lt;font style=&quot;font-size: 14px&quot;&gt;ins-2&lt;/font&gt;&lt;/td&gt;&lt;td&gt;&lt;font style=&quot;font-size: 14px&quot;&gt;&lt;span style=&quot;background-color: rgb(248 , 249 , 250)&quot;&gt;ins-1&lt;/span&gt;&lt;br&gt;&lt;/font&gt;&lt;/td&gt;&lt;td&gt;&lt;font style=&quot;font-size: 14px&quot;&gt;1024&lt;/font&gt;&lt;/td&gt;&lt;td&gt;&lt;font style=&quot;font-size: 14px&quot;&gt;2048&lt;/font&gt;&lt;/td&gt;&lt;/tr&gt;&lt;/tbody&gt;&lt;/table&gt;" id="7WFJHBoiRgZRYlErVv3r-45">
          <mxCell style="text;html=1;strokeColor=#c0c0c0;fillColor=#ffffff;overflow=fill;sketch=1;" vertex="1" parent="WIyWlLk6GJQsqaUBKTNV-1">
            <mxGeometry x="905" y="1916" width="391" height="160" as="geometry" />
          </mxCell>
        </object>
        <mxCell id="7WFJHBoiRgZRYlErVv3r-46" value="" style="shape=flexArrow;endArrow=classic;html=1;" edge="1" parent="WIyWlLk6GJQsqaUBKTNV-1">
          <mxGeometry width="50" height="50" relative="1" as="geometry">
            <mxPoint x="1367" y="2001" as="sourcePoint" />
            <mxPoint x="1443" y="2001" as="targetPoint" />
          </mxGeometry>
        </mxCell>
        <mxCell id="7WFJHBoiRgZRYlErVv3r-47" value="&lt;font style=&quot;font-size: 15px&quot;&gt;&lt;b&gt;消除会话源和目的特征&lt;/b&gt;&lt;/font&gt;" style="text;html=1;align=center;verticalAlign=middle;resizable=0;points=[];autosize=1;strokeColor=none;" vertex="1" parent="WIyWlLk6GJQsqaUBKTNV-1">
          <mxGeometry x="1338" y="1961" width="160" height="19" as="geometry" />
        </mxCell>
        <object label="&lt;table border=&quot;1&quot; width=&quot;100%&quot; cellpadding=&quot;4&quot; style=&quot;width: 100% ; height: 100% ; border-collapse: collapse ; font-size: 14px&quot;&gt;&lt;tbody&gt;&lt;tr style=&quot;background-color: #a7c942 ; color: #ffffff ; border: 1px solid #98bf21&quot;&gt;&lt;th align=&quot;left&quot;&gt;&lt;font style=&quot;font-size: 14px&quot;&gt;left_Ins&lt;/font&gt;&lt;/th&gt;&lt;td&gt;&lt;b&gt;&lt;font style=&quot;font-size: 14px&quot;&gt;right_Ins&lt;/font&gt;&lt;/b&gt;&lt;/td&gt;&lt;th align=&quot;left&quot;&gt;&lt;font style=&quot;font-size: 14px&quot;&gt;left2right&lt;/font&gt;&lt;/th&gt;&lt;td&gt;&lt;b&gt;&lt;font style=&quot;font-size: 14px&quot;&gt;right2left&lt;/font&gt;&lt;/b&gt;&lt;/td&gt;&lt;/tr&gt;&lt;tr style=&quot;border: 1px solid #98bf21&quot;&gt;&lt;td&gt;&lt;font style=&quot;font-size: 14px&quot;&gt;ins-1&lt;/font&gt;&lt;/td&gt;&lt;td&gt;&lt;font style=&quot;font-size: 14px&quot;&gt;ins-2&lt;/font&gt;&lt;/td&gt;&lt;td&gt;&lt;font style=&quot;font-size: 14px&quot;&gt;1024&lt;/font&gt;&lt;/td&gt;&lt;td&gt;&lt;font style=&quot;font-size: 14px&quot;&gt;2048&lt;/font&gt;&lt;/td&gt;&lt;/tr&gt;&lt;tr style=&quot;background-color: #eaf2d3 ; border: 1px solid #98bf21&quot;&gt;&lt;td&gt;&lt;font style=&quot;font-size: 14px&quot;&gt;ins-1&lt;/font&gt;&lt;/td&gt;&lt;td&gt;&lt;font style=&quot;font-size: 14px&quot;&gt;&lt;span style=&quot;background-color: rgb(248 , 249 , 250)&quot;&gt;ins-2&lt;/span&gt;&lt;br&gt;&lt;/font&gt;&lt;/td&gt;&lt;td&gt;&lt;font style=&quot;font-size: 14px&quot;&gt;2048&lt;/font&gt;&lt;/td&gt;&lt;td&gt;&lt;font style=&quot;font-size: 14px&quot;&gt;1024&lt;/font&gt;&lt;/td&gt;&lt;/tr&gt;&lt;/tbody&gt;&lt;/table&gt;" id="7WFJHBoiRgZRYlErVv3r-48">
          <mxCell style="text;html=1;strokeColor=#c0c0c0;fillColor=#ffffff;overflow=fill;sketch=1;" vertex="1" parent="WIyWlLk6GJQsqaUBKTNV-1">
            <mxGeometry x="1583" y="1918" width="391" height="160" as="geometry" />
          </mxCell>
        </object>
        <mxCell id="7WFJHBoiRgZRYlErVv3r-50" value="&lt;font style=&quot;font-size: 16px&quot;&gt;&lt;b&gt;源与目的排序分左右&lt;/b&gt;&lt;/font&gt;" style="text;html=1;align=center;verticalAlign=middle;resizable=0;points=[];autosize=1;strokeColor=none;" vertex="1" parent="WIyWlLk6GJQsqaUBKTNV-1">
          <mxGeometry x="1341" y="2028" width="154" height="19" as="geometry" />
        </mxCell>
        <mxCell id="7WFJHBoiRgZRYlErVv3r-51" value="" style="shape=flexArrow;endArrow=classic;html=1;" edge="1" parent="WIyWlLk6GJQsqaUBKTNV-1">
          <mxGeometry width="50" height="50" relative="1" as="geometry">
            <mxPoint x="1786" y="2126" as="sourcePoint" />
            <mxPoint x="1786.5" y="2214" as="targetPoint" />
          </mxGeometry>
        </mxCell>
        <mxCell id="7WFJHBoiRgZRYlErVv3r-52" value="&lt;font style=&quot;font-size: 16px&quot;&gt;富华去重后资产树子路径数据&lt;/font&gt;" style="text;html=1;align=center;verticalAlign=middle;resizable=0;points=[];autosize=1;strokeColor=none;fontStyle=1" vertex="1" parent="WIyWlLk6GJQsqaUBKTNV-1">
          <mxGeometry x="1545" y="2152" width="218" height="19" as="geometry" />
        </mxCell>
        <mxCell id="7WFJHBoiRgZRYlErVv3r-55" value="全部资产" style="ellipse;whiteSpace=wrap;html=1;aspect=fixed;sketch=1;" vertex="1" parent="WIyWlLk6GJQsqaUBKTNV-1">
          <mxGeometry x="2276.5" y="1756" width="36" height="36" as="geometry" />
        </mxCell>
        <mxCell id="7WFJHBoiRgZRYlErVv3r-56" value="A" style="ellipse;whiteSpace=wrap;html=1;aspect=fixed;sketch=1;" vertex="1" parent="WIyWlLk6GJQsqaUBKTNV-1">
          <mxGeometry x="2190.5" y="1841.5" width="36" height="36" as="geometry" />
        </mxCell>
        <mxCell id="7WFJHBoiRgZRYlErVv3r-57" value="B" style="ellipse;whiteSpace=wrap;html=1;aspect=fixed;sketch=1;" vertex="1" parent="WIyWlLk6GJQsqaUBKTNV-1">
          <mxGeometry x="2276.5" y="1839.5" width="36" height="36" as="geometry" />
        </mxCell>
        <mxCell id="7WFJHBoiRgZRYlErVv3r-60" value="C" style="ellipse;whiteSpace=wrap;html=1;aspect=fixed;sketch=1;" vertex="1" parent="WIyWlLk6GJQsqaUBKTNV-1">
          <mxGeometry x="2366.5" y="1841.5" width="36" height="36" as="geometry" />
        </mxCell>
        <mxCell id="7WFJHBoiRgZRYlErVv3r-64" value="" style="endArrow=none;html=1;entryX=0;entryY=1;entryDx=0;entryDy=0;exitX=0.5;exitY=0;exitDx=0;exitDy=0;" edge="1" parent="WIyWlLk6GJQsqaUBKTNV-1" source="7WFJHBoiRgZRYlErVv3r-56" target="7WFJHBoiRgZRYlErVv3r-55">
          <mxGeometry width="50" height="50" relative="1" as="geometry">
            <mxPoint x="2186.5" y="1807.5" as="sourcePoint" />
            <mxPoint x="2072.5" y="1949.5" as="targetPoint" />
          </mxGeometry>
        </mxCell>
        <mxCell id="7WFJHBoiRgZRYlErVv3r-65" value="" style="endArrow=none;html=1;entryX=1;entryY=1;entryDx=0;entryDy=0;exitX=0.5;exitY=0;exitDx=0;exitDy=0;" edge="1" parent="WIyWlLk6GJQsqaUBKTNV-1" source="7WFJHBoiRgZRYlErVv3r-60" target="7WFJHBoiRgZRYlErVv3r-55">
          <mxGeometry width="50" height="50" relative="1" as="geometry">
            <mxPoint x="2218.5" y="1851.5" as="sourcePoint" />
            <mxPoint x="2283.7720779386427" y="1795.2279220613573" as="targetPoint" />
          </mxGeometry>
        </mxCell>
        <mxCell id="7WFJHBoiRgZRYlErVv3r-66" value="" style="endArrow=none;html=1;entryX=0.5;entryY=1;entryDx=0;entryDy=0;exitX=0.5;exitY=0;exitDx=0;exitDy=0;strokeColor=#FF0000;" edge="1" parent="WIyWlLk6GJQsqaUBKTNV-1" source="7WFJHBoiRgZRYlErVv3r-57" target="7WFJHBoiRgZRYlErVv3r-55">
          <mxGeometry width="50" height="50" relative="1" as="geometry">
            <mxPoint x="2228.5" y="1861.5" as="sourcePoint" />
            <mxPoint x="2293.7720779386427" y="1805.2279220613573" as="targetPoint" />
          </mxGeometry>
        </mxCell>
        <mxCell id="7WFJHBoiRgZRYlErVv3r-67" value="D" style="ellipse;whiteSpace=wrap;html=1;aspect=fixed;sketch=1;" vertex="1" parent="WIyWlLk6GJQsqaUBKTNV-1">
          <mxGeometry x="2276.5" y="1931.5" width="36" height="36" as="geometry" />
        </mxCell>
        <mxCell id="7WFJHBoiRgZRYlErVv3r-68" value="E" style="ellipse;whiteSpace=wrap;html=1;aspect=fixed;sketch=1;" vertex="1" parent="WIyWlLk6GJQsqaUBKTNV-1">
          <mxGeometry x="2190.5" y="2017" width="36" height="36" as="geometry" />
        </mxCell>
        <mxCell id="7WFJHBoiRgZRYlErVv3r-69" value="F" style="ellipse;whiteSpace=wrap;html=1;aspect=fixed;sketch=1;" vertex="1" parent="WIyWlLk6GJQsqaUBKTNV-1">
          <mxGeometry x="2276.5" y="2015" width="36" height="36" as="geometry" />
        </mxCell>
        <mxCell id="7WFJHBoiRgZRYlErVv3r-70" value="ins-1" style="ellipse;whiteSpace=wrap;html=1;aspect=fixed;sketch=1;fillColor=#dae8fc;strokeColor=#6c8ebf;" vertex="1" parent="WIyWlLk6GJQsqaUBKTNV-1">
          <mxGeometry x="2366.5" y="2017" width="36" height="36" as="geometry" />
        </mxCell>
        <mxCell id="7WFJHBoiRgZRYlErVv3r-71" value="" style="endArrow=none;html=1;entryX=0;entryY=1;entryDx=0;entryDy=0;exitX=0.5;exitY=0;exitDx=0;exitDy=0;" edge="1" parent="WIyWlLk6GJQsqaUBKTNV-1" source="7WFJHBoiRgZRYlErVv3r-68" target="7WFJHBoiRgZRYlErVv3r-67">
          <mxGeometry width="50" height="50" relative="1" as="geometry">
            <mxPoint x="2186.5" y="1983" as="sourcePoint" />
            <mxPoint x="2072.5" y="2125" as="targetPoint" />
          </mxGeometry>
        </mxCell>
        <mxCell id="7WFJHBoiRgZRYlErVv3r-72" value="" style="endArrow=none;html=1;entryX=1;entryY=1;entryDx=0;entryDy=0;exitX=0.5;exitY=0;exitDx=0;exitDy=0;strokeColor=#FF0000;" edge="1" parent="WIyWlLk6GJQsqaUBKTNV-1" source="7WFJHBoiRgZRYlErVv3r-70" target="7WFJHBoiRgZRYlErVv3r-67">
          <mxGeometry width="50" height="50" relative="1" as="geometry">
            <mxPoint x="2218.5" y="2027" as="sourcePoint" />
            <mxPoint x="2283.7720779386427" y="1970.7279220613573" as="targetPoint" />
          </mxGeometry>
        </mxCell>
        <mxCell id="7WFJHBoiRgZRYlErVv3r-73" value="" style="endArrow=none;html=1;entryX=0.5;entryY=1;entryDx=0;entryDy=0;exitX=0.5;exitY=0;exitDx=0;exitDy=0;" edge="1" parent="WIyWlLk6GJQsqaUBKTNV-1" source="7WFJHBoiRgZRYlErVv3r-69" target="7WFJHBoiRgZRYlErVv3r-67">
          <mxGeometry width="50" height="50" relative="1" as="geometry">
            <mxPoint x="2228.5" y="2037" as="sourcePoint" />
            <mxPoint x="2293.7720779386427" y="1980.7279220613573" as="targetPoint" />
          </mxGeometry>
        </mxCell>
        <mxCell id="7WFJHBoiRgZRYlErVv3r-74" value="" style="endArrow=none;html=1;entryX=0.5;entryY=1;entryDx=0;entryDy=0;exitX=0.5;exitY=0;exitDx=0;exitDy=0;strokeColor=#FF0000;" edge="1" parent="WIyWlLk6GJQsqaUBKTNV-1" source="7WFJHBoiRgZRYlErVv3r-67" target="7WFJHBoiRgZRYlErVv3r-57">
          <mxGeometry width="50" height="50" relative="1" as="geometry">
            <mxPoint x="2218.5" y="1851.5" as="sourcePoint" />
            <mxPoint x="2291.7720779386427" y="1796.7279220613573" as="targetPoint" />
          </mxGeometry>
        </mxCell>
        <mxCell id="7WFJHBoiRgZRYlErVv3r-75" value="ins-1" style="ellipse;whiteSpace=wrap;html=1;aspect=fixed;sketch=1;fillColor=#dae8fc;strokeColor=#6c8ebf;" vertex="1" parent="WIyWlLk6GJQsqaUBKTNV-1">
          <mxGeometry x="2200.5" y="1923.5" width="36" height="36" as="geometry" />
        </mxCell>
        <mxCell id="7WFJHBoiRgZRYlErVv3r-76" value="" style="endArrow=none;html=1;exitX=0.5;exitY=0;exitDx=0;exitDy=0;entryX=0;entryY=1;entryDx=0;entryDy=0;strokeColor=#FF0000;" edge="1" parent="WIyWlLk6GJQsqaUBKTNV-1" source="7WFJHBoiRgZRYlErVv3r-75" target="7WFJHBoiRgZRYlErVv3r-57">
          <mxGeometry width="50" height="50" relative="1" as="geometry">
            <mxPoint x="2304.5" y="1941.5" as="sourcePoint" />
            <mxPoint x="2304.5" y="1885.5" as="targetPoint" />
          </mxGeometry>
        </mxCell>
        <mxCell id="7WFJHBoiRgZRYlErVv3r-77" value="全部资产，全部资产/B，全部资产/B/ins-1" style="text;html=1;align=center;verticalAlign=middle;resizable=0;points=[];autosize=1;strokeColor=none;" vertex="1" parent="WIyWlLk6GJQsqaUBKTNV-1">
          <mxGeometry x="2179" y="2098.5" width="230" height="18" as="geometry" />
        </mxCell>
        <mxCell id="7WFJHBoiRgZRYlErVv3r-80" value="" style="edgeStyle=orthogonalEdgeStyle;rounded=0;sketch=1;orthogonalLoop=1;jettySize=auto;html=1;strokeColor=#FF0000;" edge="1" parent="WIyWlLk6GJQsqaUBKTNV-1" source="7WFJHBoiRgZRYlErVv3r-78" target="7WFJHBoiRgZRYlErVv3r-79">
          <mxGeometry relative="1" as="geometry" />
        </mxCell>
        <mxCell id="7WFJHBoiRgZRYlErVv3r-78" value="全部资产，全部资产/B，全部资产/B/D，全部资产/B/D/ins-1" style="text;html=1;align=center;verticalAlign=middle;resizable=0;points=[];autosize=1;strokeColor=none;" vertex="1" parent="WIyWlLk6GJQsqaUBKTNV-1">
          <mxGeometry x="2132" y="2139.5" width="325" height="18" as="geometry" />
        </mxCell>
        <mxCell id="7WFJHBoiRgZRYlErVv3r-79" value="全部资产，全部资产/B，全部资产/B/ins-1，全部资产/B/D，全部资产/B/D/ins-1" style="text;html=1;align=center;verticalAlign=middle;resizable=0;points=[];autosize=1;strokeColor=none;" vertex="1" parent="WIyWlLk6GJQsqaUBKTNV-1">
          <mxGeometry x="2082" y="2237.5" width="426" height="18" as="geometry" />
        </mxCell>
        <mxCell id="7WFJHBoiRgZRYlErVv3r-81" value="去重" style="text;html=1;align=center;verticalAlign=middle;resizable=0;points=[];autosize=1;strokeColor=none;" vertex="1" parent="WIyWlLk6GJQsqaUBKTNV-1">
          <mxGeometry x="2307.5" y="2184.5" width="34" height="18" as="geometry" />
        </mxCell>
        <mxCell id="7WFJHBoiRgZRYlErVv3r-83" value="&lt;span style=&quot;font-size: 20px ; line-height: 30%&quot;&gt;两个array，笛卡尔积展开&lt;/span&gt;" style="text;html=1;align=center;verticalAlign=middle;resizable=0;points=[];autosize=1;strokeColor=none;" vertex="1" parent="WIyWlLk6GJQsqaUBKTNV-1">
          <mxGeometry x="1182" y="2855" width="236" height="18" as="geometry" />
        </mxCell>
        <mxCell id="7WFJHBoiRgZRYlErVv3r-85" value="&lt;span style=&quot;font-size: 20px ; line-height: 30%&quot;&gt;select union select&lt;/span&gt;" style="text;html=1;align=center;verticalAlign=middle;resizable=0;points=[];autosize=1;strokeColor=none;" vertex="1" parent="WIyWlLk6GJQsqaUBKTNV-1">
          <mxGeometry x="1212.5" y="3226.5" width="175" height="18" as="geometry" />
        </mxCell>
        <mxCell id="7WFJHBoiRgZRYlErVv3r-86" value="&lt;span style=&quot;font-size: 20px ; line-height: 30%&quot;&gt;cfw_asset_resource_group_ins&amp;nbsp; &amp;nbsp; &amp;nbsp;资产分组资产表&amp;nbsp; &amp;nbsp;30w&lt;/span&gt;" style="text;html=1;align=center;verticalAlign=middle;resizable=0;points=[];autosize=1;strokeColor=none;" vertex="1" parent="WIyWlLk6GJQsqaUBKTNV-1">
          <mxGeometry x="1448" y="2547" width="508" height="18" as="geometry" />
        </mxCell>
        <mxCell id="7WFJHBoiRgZRYlErVv3r-87" value="&lt;span style=&quot;font-size: 20px ; line-height: 30%&quot;&gt;预估400w行 × 24*7小时&lt;/span&gt;" style="text;html=1;align=center;verticalAlign=middle;resizable=0;points=[];autosize=1;strokeColor=none;" vertex="1" parent="WIyWlLk6GJQsqaUBKTNV-1">
          <mxGeometry x="1591" y="2578" width="222" height="18" as="geometry" />
        </mxCell>
        <mxCell id="7WFJHBoiRgZRYlErVv3r-88" value="&lt;span style=&quot;font-size: 20px&quot;&gt;数据量与资产树节点数量 笛卡尔积有关&lt;/span&gt;" style="text;html=1;align=center;verticalAlign=middle;resizable=0;points=[];autosize=1;strokeColor=none;" vertex="1" parent="WIyWlLk6GJQsqaUBKTNV-1">
          <mxGeometry x="1524" y="2824" width="356" height="21" as="geometry" />
        </mxCell>
        <mxCell id="7WFJHBoiRgZRYlErVv3r-89" value="&lt;span style=&quot;font-size: 20px&quot;&gt;10层满三叉树节点数量为29524，笛卡尔积为8.7亿&lt;/span&gt;" style="text;html=1;align=center;verticalAlign=middle;resizable=0;points=[];autosize=1;strokeColor=none;" vertex="1" parent="WIyWlLk6GJQsqaUBKTNV-1">
          <mxGeometry x="1485.5" y="2879" width="456" height="21" as="geometry" />
        </mxCell>
        <mxCell id="7WFJHBoiRgZRYlErVv3r-90" value="&lt;span style=&quot;font-size: 20px&quot;&gt;预估30亿&amp;nbsp; ×&amp;nbsp; 24*7小时&lt;/span&gt;" style="text;html=1;align=center;verticalAlign=middle;resizable=0;points=[];autosize=1;strokeColor=none;" vertex="1" parent="WIyWlLk6GJQsqaUBKTNV-1">
          <mxGeometry x="1610" y="2918" width="207" height="21" as="geometry" />
        </mxCell>
        <mxCell id="7WFJHBoiRgZRYlErVv3r-91" value="全部资产" style="ellipse;whiteSpace=wrap;html=1;aspect=fixed;sketch=1;" vertex="1" parent="WIyWlLk6GJQsqaUBKTNV-1">
          <mxGeometry x="2142" y="2983" width="36" height="36" as="geometry" />
        </mxCell>
        <mxCell id="7WFJHBoiRgZRYlErVv3r-92" value="A" style="ellipse;whiteSpace=wrap;html=1;aspect=fixed;sketch=1;" vertex="1" parent="WIyWlLk6GJQsqaUBKTNV-1">
          <mxGeometry x="2056" y="3068.5" width="36" height="36" as="geometry" />
        </mxCell>
        <mxCell id="7WFJHBoiRgZRYlErVv3r-93" value="B" style="ellipse;whiteSpace=wrap;html=1;aspect=fixed;sketch=1;" vertex="1" parent="WIyWlLk6GJQsqaUBKTNV-1">
          <mxGeometry x="2142" y="3066.5" width="36" height="36" as="geometry" />
        </mxCell>
        <mxCell id="7WFJHBoiRgZRYlErVv3r-94" value="C" style="ellipse;whiteSpace=wrap;html=1;aspect=fixed;sketch=1;" vertex="1" parent="WIyWlLk6GJQsqaUBKTNV-1">
          <mxGeometry x="2232" y="3068.5" width="36" height="36" as="geometry" />
        </mxCell>
        <mxCell id="7WFJHBoiRgZRYlErVv3r-95" value="" style="endArrow=none;html=1;entryX=0;entryY=1;entryDx=0;entryDy=0;exitX=0.5;exitY=0;exitDx=0;exitDy=0;" edge="1" parent="WIyWlLk6GJQsqaUBKTNV-1" source="7WFJHBoiRgZRYlErVv3r-92" target="7WFJHBoiRgZRYlErVv3r-91">
          <mxGeometry width="50" height="50" relative="1" as="geometry">
            <mxPoint x="2052" y="3034.5" as="sourcePoint" />
            <mxPoint x="1938" y="3176.5" as="targetPoint" />
          </mxGeometry>
        </mxCell>
        <mxCell id="7WFJHBoiRgZRYlErVv3r-96" value="" style="endArrow=none;html=1;entryX=1;entryY=1;entryDx=0;entryDy=0;exitX=0.5;exitY=0;exitDx=0;exitDy=0;" edge="1" parent="WIyWlLk6GJQsqaUBKTNV-1" source="7WFJHBoiRgZRYlErVv3r-94" target="7WFJHBoiRgZRYlErVv3r-91">
          <mxGeometry width="50" height="50" relative="1" as="geometry">
            <mxPoint x="2084" y="3078.5" as="sourcePoint" />
            <mxPoint x="2149.2720779386427" y="3022.2279220613573" as="targetPoint" />
          </mxGeometry>
        </mxCell>
        <mxCell id="7WFJHBoiRgZRYlErVv3r-97" value="" style="endArrow=none;html=1;entryX=0.5;entryY=1;entryDx=0;entryDy=0;exitX=0.5;exitY=0;exitDx=0;exitDy=0;strokeColor=#FF0000;" edge="1" parent="WIyWlLk6GJQsqaUBKTNV-1" source="7WFJHBoiRgZRYlErVv3r-93" target="7WFJHBoiRgZRYlErVv3r-91">
          <mxGeometry width="50" height="50" relative="1" as="geometry">
            <mxPoint x="2094" y="3088.5" as="sourcePoint" />
            <mxPoint x="2159.2720779386427" y="3032.2279220613573" as="targetPoint" />
          </mxGeometry>
        </mxCell>
        <mxCell id="7WFJHBoiRgZRYlErVv3r-105" value="全部资产" style="ellipse;whiteSpace=wrap;html=1;aspect=fixed;sketch=1;" vertex="1" parent="WIyWlLk6GJQsqaUBKTNV-1">
          <mxGeometry x="2501" y="2983" width="36" height="36" as="geometry" />
        </mxCell>
        <mxCell id="7WFJHBoiRgZRYlErVv3r-106" value="A" style="ellipse;whiteSpace=wrap;html=1;aspect=fixed;sketch=1;" vertex="1" parent="WIyWlLk6GJQsqaUBKTNV-1">
          <mxGeometry x="2415" y="3068.5" width="36" height="36" as="geometry" />
        </mxCell>
        <mxCell id="7WFJHBoiRgZRYlErVv3r-107" value="B" style="ellipse;whiteSpace=wrap;html=1;aspect=fixed;sketch=1;" vertex="1" parent="WIyWlLk6GJQsqaUBKTNV-1">
          <mxGeometry x="2501" y="3066.5" width="36" height="36" as="geometry" />
        </mxCell>
        <mxCell id="7WFJHBoiRgZRYlErVv3r-108" value="C" style="ellipse;whiteSpace=wrap;html=1;aspect=fixed;sketch=1;" vertex="1" parent="WIyWlLk6GJQsqaUBKTNV-1">
          <mxGeometry x="2591" y="3068.5" width="36" height="36" as="geometry" />
        </mxCell>
        <mxCell id="7WFJHBoiRgZRYlErVv3r-109" value="" style="endArrow=none;html=1;entryX=0;entryY=1;entryDx=0;entryDy=0;exitX=0.5;exitY=0;exitDx=0;exitDy=0;" edge="1" parent="WIyWlLk6GJQsqaUBKTNV-1" source="7WFJHBoiRgZRYlErVv3r-106" target="7WFJHBoiRgZRYlErVv3r-105">
          <mxGeometry width="50" height="50" relative="1" as="geometry">
            <mxPoint x="2411" y="3034.5" as="sourcePoint" />
            <mxPoint x="2297" y="3176.5" as="targetPoint" />
          </mxGeometry>
        </mxCell>
        <mxCell id="7WFJHBoiRgZRYlErVv3r-110" value="" style="endArrow=none;html=1;entryX=1;entryY=1;entryDx=0;entryDy=0;exitX=0.5;exitY=0;exitDx=0;exitDy=0;" edge="1" parent="WIyWlLk6GJQsqaUBKTNV-1" source="7WFJHBoiRgZRYlErVv3r-108" target="7WFJHBoiRgZRYlErVv3r-105">
          <mxGeometry width="50" height="50" relative="1" as="geometry">
            <mxPoint x="2443" y="3078.5" as="sourcePoint" />
            <mxPoint x="2508.2720779386427" y="3022.2279220613573" as="targetPoint" />
          </mxGeometry>
        </mxCell>
        <mxCell id="7WFJHBoiRgZRYlErVv3r-111" value="" style="endArrow=none;html=1;entryX=0.5;entryY=1;entryDx=0;entryDy=0;exitX=0.5;exitY=0;exitDx=0;exitDy=0;strokeColor=#FF0000;" edge="1" parent="WIyWlLk6GJQsqaUBKTNV-1" source="7WFJHBoiRgZRYlErVv3r-107" target="7WFJHBoiRgZRYlErVv3r-105">
          <mxGeometry width="50" height="50" relative="1" as="geometry">
            <mxPoint x="2453" y="3088.5" as="sourcePoint" />
            <mxPoint x="2518.2720779386427" y="3032.2279220613573" as="targetPoint" />
          </mxGeometry>
        </mxCell>
        <mxCell id="7WFJHBoiRgZRYlErVv3r-112" value="&lt;font style=&quot;font-size: 37px&quot;&gt;×&lt;/font&gt;" style="text;html=1;align=center;verticalAlign=middle;resizable=0;points=[];autosize=1;strokeColor=none;" vertex="1" parent="WIyWlLk6GJQsqaUBKTNV-1">
          <mxGeometry x="2323" y="3033" width="32" height="26" as="geometry" />
        </mxCell>
        <mxCell id="7WFJHBoiRgZRYlErVv3r-115" value="&lt;span style=&quot;font-size: 20px&quot;&gt;数据量与资产树节点数量 有关&lt;/span&gt;" style="text;html=1;align=center;verticalAlign=middle;resizable=0;points=[];autosize=1;strokeColor=none;" vertex="1" parent="WIyWlLk6GJQsqaUBKTNV-1">
          <mxGeometry x="1564" y="3178" width="276" height="21" as="geometry" />
        </mxCell>
        <mxCell id="7WFJHBoiRgZRYlErVv3r-116" value="&lt;span style=&quot;font-size: 20px&quot;&gt;10层满三叉树节点数量为29524，当前最大用户节点数量5.4k&lt;/span&gt;" style="text;html=1;align=center;verticalAlign=middle;resizable=0;points=[];autosize=1;strokeColor=none;" vertex="1" parent="WIyWlLk6GJQsqaUBKTNV-1">
          <mxGeometry x="1429" y="3223.5" width="546" height="21" as="geometry" />
        </mxCell>
        <mxCell id="7WFJHBoiRgZRYlErVv3r-117" value="&lt;span style=&quot;font-size: 20px&quot;&gt;预估10w&amp;nbsp; ×&amp;nbsp; 24*7小时&lt;/span&gt;" style="text;html=1;align=center;verticalAlign=middle;resizable=0;points=[];autosize=1;strokeColor=none;" vertex="1" parent="WIyWlLk6GJQsqaUBKTNV-1">
          <mxGeometry x="1601.5" y="3265" width="202" height="21" as="geometry" />
        </mxCell>
        <mxCell id="7WFJHBoiRgZRYlErVv3r-118" value="ins-2" style="ellipse;whiteSpace=wrap;html=1;aspect=fixed;sketch=1;fillColor=#dae8fc;" vertex="1" parent="WIyWlLk6GJQsqaUBKTNV-1">
          <mxGeometry x="2457" y="1927.5" width="36" height="36" as="geometry" />
        </mxCell>
        <mxCell id="7WFJHBoiRgZRYlErVv3r-119" value="" style="endArrow=none;html=1;exitX=0.5;exitY=0;exitDx=0;exitDy=0;entryX=1;entryY=1;entryDx=0;entryDy=0;" edge="1" parent="WIyWlLk6GJQsqaUBKTNV-1" source="7WFJHBoiRgZRYlErVv3r-118" target="7WFJHBoiRgZRYlErVv3r-60">
          <mxGeometry width="50" height="50" relative="1" as="geometry">
            <mxPoint x="2607.5" y="1963.77" as="sourcePoint" />
            <mxPoint x="2584.7720779385436" y="1892.4979220614573" as="targetPoint" />
          </mxGeometry>
        </mxCell>
        <mxCell id="7WFJHBoiRgZRYlErVv3r-120" value="全部资产" style="ellipse;whiteSpace=wrap;html=1;aspect=fixed;sketch=1;" vertex="1" parent="WIyWlLk6GJQsqaUBKTNV-1">
          <mxGeometry x="2135" y="2544" width="36" height="36" as="geometry" />
        </mxCell>
        <mxCell id="7WFJHBoiRgZRYlErVv3r-122" value="B" style="ellipse;whiteSpace=wrap;html=1;aspect=fixed;sketch=1;" vertex="1" parent="WIyWlLk6GJQsqaUBKTNV-1">
          <mxGeometry x="2135" y="2627.5" width="36" height="36" as="geometry" />
        </mxCell>
        <mxCell id="7WFJHBoiRgZRYlErVv3r-126" value="" style="endArrow=none;html=1;entryX=0.5;entryY=1;entryDx=0;entryDy=0;exitX=0.5;exitY=0;exitDx=0;exitDy=0;strokeColor=#FF0000;" edge="1" parent="WIyWlLk6GJQsqaUBKTNV-1" source="7WFJHBoiRgZRYlErVv3r-122" target="7WFJHBoiRgZRYlErVv3r-120">
          <mxGeometry width="50" height="50" relative="1" as="geometry">
            <mxPoint x="2087" y="2649.5" as="sourcePoint" />
            <mxPoint x="2152.2720779386427" y="2593.2279220613573" as="targetPoint" />
          </mxGeometry>
        </mxCell>
        <mxCell id="7WFJHBoiRgZRYlErVv3r-127" value="D" style="ellipse;whiteSpace=wrap;html=1;aspect=fixed;sketch=1;" vertex="1" parent="WIyWlLk6GJQsqaUBKTNV-1">
          <mxGeometry x="2135" y="2719.5" width="36" height="36" as="geometry" />
        </mxCell>
        <mxCell id="7WFJHBoiRgZRYlErVv3r-130" value="ins-1" style="ellipse;whiteSpace=wrap;html=1;aspect=fixed;sketch=1;fillColor=#dae8fc;strokeColor=#6c8ebf;" vertex="1" parent="WIyWlLk6GJQsqaUBKTNV-1">
          <mxGeometry x="2135" y="2828" width="36" height="36" as="geometry" />
        </mxCell>
        <mxCell id="7WFJHBoiRgZRYlErVv3r-132" value="" style="endArrow=none;html=1;entryX=0.5;entryY=1;entryDx=0;entryDy=0;exitX=0.5;exitY=0;exitDx=0;exitDy=0;strokeColor=#FF0000;" edge="1" parent="WIyWlLk6GJQsqaUBKTNV-1" source="7WFJHBoiRgZRYlErVv3r-130" target="7WFJHBoiRgZRYlErVv3r-127">
          <mxGeometry width="50" height="50" relative="1" as="geometry">
            <mxPoint x="2077" y="2815" as="sourcePoint" />
            <mxPoint x="2142.2720779386427" y="2758.7279220613573" as="targetPoint" />
          </mxGeometry>
        </mxCell>
        <mxCell id="7WFJHBoiRgZRYlErVv3r-134" value="" style="endArrow=none;html=1;entryX=0.5;entryY=1;entryDx=0;entryDy=0;exitX=0.5;exitY=0;exitDx=0;exitDy=0;strokeColor=#FF0000;" edge="1" parent="WIyWlLk6GJQsqaUBKTNV-1" source="7WFJHBoiRgZRYlErVv3r-127" target="7WFJHBoiRgZRYlErVv3r-122">
          <mxGeometry width="50" height="50" relative="1" as="geometry">
            <mxPoint x="2077" y="2639.5" as="sourcePoint" />
            <mxPoint x="2150.2720779386427" y="2584.7279220613573" as="targetPoint" />
          </mxGeometry>
        </mxCell>
        <mxCell id="7WFJHBoiRgZRYlErVv3r-135" value="ins-1" style="ellipse;whiteSpace=wrap;html=1;aspect=fixed;sketch=1;fillColor=#dae8fc;strokeColor=#6c8ebf;" vertex="1" parent="WIyWlLk6GJQsqaUBKTNV-1">
          <mxGeometry x="2059" y="2711.5" width="36" height="36" as="geometry" />
        </mxCell>
        <mxCell id="7WFJHBoiRgZRYlErVv3r-136" value="" style="endArrow=none;html=1;exitX=0.5;exitY=0;exitDx=0;exitDy=0;entryX=0;entryY=1;entryDx=0;entryDy=0;strokeColor=#FF0000;" edge="1" parent="WIyWlLk6GJQsqaUBKTNV-1" source="7WFJHBoiRgZRYlErVv3r-135" target="7WFJHBoiRgZRYlErVv3r-122">
          <mxGeometry width="50" height="50" relative="1" as="geometry">
            <mxPoint x="2163" y="2729.5" as="sourcePoint" />
            <mxPoint x="2163" y="2673.5" as="targetPoint" />
          </mxGeometry>
        </mxCell>
        <mxCell id="7WFJHBoiRgZRYlErVv3r-139" value="C" style="ellipse;whiteSpace=wrap;html=1;aspect=fixed;sketch=1;" vertex="1" parent="WIyWlLk6GJQsqaUBKTNV-1">
          <mxGeometry x="2472" y="2670" width="36" height="36" as="geometry" />
        </mxCell>
        <mxCell id="7WFJHBoiRgZRYlErVv3r-140" value="" style="endArrow=none;html=1;entryX=0.5;entryY=1;entryDx=0;entryDy=0;exitX=0.5;exitY=0;exitDx=0;exitDy=0;" edge="1" parent="WIyWlLk6GJQsqaUBKTNV-1" source="7WFJHBoiRgZRYlErVv3r-139" target="7WFJHBoiRgZRYlErVv3r-143">
          <mxGeometry width="50" height="50" relative="1" as="geometry">
            <mxPoint x="2433.77" y="2661.77" as="sourcePoint" />
            <mxPoint x="2522.4979220614564" y="2596.9979220614564" as="targetPoint" />
          </mxGeometry>
        </mxCell>
        <mxCell id="7WFJHBoiRgZRYlErVv3r-141" value="ins-2" style="ellipse;whiteSpace=wrap;html=1;aspect=fixed;sketch=1;fillColor=#dae8fc;" vertex="1" parent="WIyWlLk6GJQsqaUBKTNV-1">
          <mxGeometry x="2474.5" y="2804" width="36" height="36" as="geometry" />
        </mxCell>
        <mxCell id="7WFJHBoiRgZRYlErVv3r-142" value="" style="endArrow=none;html=1;exitX=0.5;exitY=0;exitDx=0;exitDy=0;entryX=0.5;entryY=1;entryDx=0;entryDy=0;" edge="1" parent="WIyWlLk6GJQsqaUBKTNV-1" source="7WFJHBoiRgZRYlErVv3r-141" target="7WFJHBoiRgZRYlErVv3r-139">
          <mxGeometry width="50" height="50" relative="1" as="geometry">
            <mxPoint x="2822.77" y="2774.04" as="sourcePoint" />
            <mxPoint x="2800.0420779385436" y="2702.7679220614573" as="targetPoint" />
          </mxGeometry>
        </mxCell>
        <mxCell id="7WFJHBoiRgZRYlErVv3r-143" value="全部资产" style="ellipse;whiteSpace=wrap;html=1;aspect=fixed;sketch=1;" vertex="1" parent="WIyWlLk6GJQsqaUBKTNV-1">
          <mxGeometry x="2472" y="2565" width="36" height="36" as="geometry" />
        </mxCell>
        <mxCell id="7WFJHBoiRgZRYlErVv3r-144" value="&lt;font style=&quot;font-size: 37px&quot;&gt;×&lt;/font&gt;" style="text;html=1;align=center;verticalAlign=middle;resizable=0;points=[];autosize=1;strokeColor=none;" vertex="1" parent="WIyWlLk6GJQsqaUBKTNV-1">
          <mxGeometry x="2307.5" y="2689" width="32" height="26" as="geometry" />
        </mxCell>
      </root>
    </mxGraphModel>
  </diagram>
</mxfile>
